<?xml version="1.0" encoding="UTF-8" standalone="no"?>
<svg
   version="1.1"
   id="Layer_1"
   x="0px"
   y="0px"
   width="100%"
   viewBox="0 0 1000 300"
   enable-background="new 0 0 1000 300"
   xml:space="preserve"
   sodipodi:docname="1 (1).svg"
   inkscape:version="1.1.2 (0a00cf5339, 2022-02-04)"
   xmlns:inkscape="http://www.inkscape.org/namespaces/inkscape"
   xmlns:sodipodi="http://sodipodi.sourceforge.net/DTD/sodipodi-0.dtd"
   xmlns="http://www.w3.org/2000/svg"
   xmlns:svg="http://www.w3.org/2000/svg"><defs
   id="defs39" /><sodipodi:namedview
   id="namedview37"
   pagecolor="#ffffff"
   bordercolor="#666666"
   borderopacity="1.0"
   inkscape:pageshadow="2"
   inkscape:pageopacity="0.0"
   inkscape:pagecheckerboard="0"
   showgrid="false"
   inkscape:zoom="0.954"
   inkscape:cx="729.55975"
   inkscape:cy="150.9434"
   inkscape:window-width="1128"
   inkscape:window-height="692"
   inkscape:window-x="0"
   inkscape:window-y="28"
   inkscape:window-maximized="1"
   inkscape:current-layer="Layer_1" />
<path
   fill="#FFFFFF"
   opacity="1.000000"
   stroke="none"
   d=" M712.000000,301.000000   C474.666656,301.000000 237.833328,301.000000 1.000000,301.000000   C1.000000,201.000000 1.000000,101.000000 1.000000,1.000000   C334.333344,1.000000 667.666687,1.000000 1001.000000,1.000000   C1001.000000,101.000000 1001.000000,201.000000 1001.000000,301.000000   C904.833313,301.000000 808.666687,301.000000 712.000000,301.000000  M217.514938,180.678955   C217.424164,184.458527 217.333389,188.238113 217.069305,192.937820   C217.069305,199.552597 217.069305,206.167389 217.069305,212.993271   C215.475494,212.993271 214.650528,213.079391 213.848236,212.980865   C182.640762,209.148300 158.296112,183.112320 157.017273,151.669083   C156.334351,134.877670 156.285446,118.056694 156.158691,101.247490   C156.021774,83.091545 156.136703,64.933746 156.113586,46.776791   C156.111359,45.032722 155.909653,43.288906 155.779526,41.208729   C142.895660,41.208729 130.587601,41.385872 118.289490,41.114113   C113.894402,41.016994 113.043617,42.746712 113.059982,46.679371   C113.184799,76.660835 112.978638,106.644119 113.190926,136.624603   C113.299271,151.925766 113.718407,167.297348 118.747017,181.994217   C133.959122,226.453857 174.216278,255.106628 221.452850,255.234589   C234.112671,255.268890 246.772675,255.239853 259.432587,255.239899   C261.190948,255.239914 262.949310,255.239914 264.723694,255.239914   C264.723694,241.117203 264.723694,227.732895 264.723694,213.829926   C250.432846,213.829926 236.519791,213.829926 221.950333,213.829926   C221.950333,206.207733 221.950333,199.100342 222.365311,191.309189   C222.514557,187.535461 222.663818,183.761749 222.991562,179.179428   C223.469727,170.679962 226.273804,163.454483 233.345612,158.043167   C237.018524,155.232666 239.933548,151.454361 243.383438,148.325500   C253.880264,138.805511 256.706146,126.971489 254.196594,112.712570   C244.397644,113.871071 235.987625,117.647713 229.180222,124.608307   C222.296829,131.646591 218.317352,140.199707 217.764908,150.663666   C204.523621,131.736710 190.426483,126.098335 174.442108,133.359161   C175.721344,136.176987 176.776566,139.141830 178.331284,141.816345   C185.496521,154.142487 196.973969,161.065964 209.848511,165.773331   C214.432343,167.449356 216.665771,170.053925 217.279343,174.552979   C217.525787,176.360062 217.711746,178.175400 217.514938,180.678955  M725.647644,251.272659   C732.184875,248.885864 737.923584,245.417847 742.073364,239.619751   C751.646118,226.244797 750.989868,207.207047 740.131042,194.683350   C737.484680,191.631317 737.228149,189.619461 740.301086,186.853775   C742.491211,184.882629 744.566040,182.520477 745.923279,179.929901   C754.072205,164.375854 754.193909,148.632355 745.806580,133.174484   C743.691956,129.277267 743.581726,126.549881 746.857666,123.570236   C748.569763,122.012962 750.383545,120.288574 751.329712,118.256943   C752.074158,116.658516 751.559692,114.473747 751.604431,112.549438   C749.641479,112.606682 747.525513,112.228668 745.760559,112.849121   C744.142700,113.417862 742.695435,114.889137 741.535767,116.267815   C737.664734,120.869568 733.657593,121.358505 727.976257,118.878471   C706.368286,109.446045 675.810303,118.862442 671.341003,150.173828   C668.845276,167.659424 675.609802,184.443863 689.716431,192.408905   C700.326904,198.399963 711.734436,199.219879 723.576965,196.488159   C725.856750,195.962311 729.345520,196.078903 730.832581,197.457138   C740.902710,206.790878 741.770935,226.128403 732.959290,235.759293   C723.618652,245.968338 703.721252,247.073776 693.205627,237.991898   C685.942810,231.719360 684.351624,223.494263 684.949829,214.463303   C685.137756,211.626648 685.563110,208.306717 681.667236,207.731689   C677.580933,207.128540 676.146301,210.103516 675.637024,213.504791   C674.025085,224.270432 675.896667,234.281799 683.822021,242.122421   C695.441101,253.617218 709.497803,255.877258 725.647644,251.272659  M346.980896,139.683655   C336.803192,110.302277 294.216187,108.908646 278.057098,128.736893   C268.800812,140.094955 267.640167,153.261871 270.095032,167.017166   C272.825897,182.318787 282.141571,192.106094 296.907806,196.122147   C312.294128,200.306824 326.651184,198.163666 338.535858,186.481155   C339.484589,185.548599 340.683868,183.450562 340.297119,182.865356   C339.397430,181.503998 337.630859,179.975601 336.158600,179.915741   C334.222382,179.836975 331.835876,180.627609 330.335632,181.876450   C325.094208,186.239471 319.049561,188.321091 312.438293,188.711914   C296.359741,189.662430 283.846771,183.035995 279.910278,167.079834   C278.138489,159.898071 278.877350,158.923813 286.367279,158.918701   C305.532471,158.905624 324.697723,158.930099 343.862854,158.902481   C349.043274,158.895020 350.186646,157.707596 349.491882,152.676086   C348.925262,148.572571 347.979980,144.521347 346.980896,139.683655  M402.546356,115.985100   C384.913208,118.976349 373.360260,129.623444 369.619110,146.330505   C365.787964,163.439682 371.844940,182.251099 385.116302,190.779419   C404.765930,203.406509 422.781769,199.356720 439.508606,183.066422   C439.508606,185.726212 439.400665,187.706909 439.533295,189.671371   C439.744629,192.802063 440.300079,195.792526 444.477661,195.695099   C448.689636,195.596893 449.049591,192.692780 449.041229,189.443695   C449.010925,177.630112 449.379517,165.801056 448.867554,154.009521   C448.627350,148.477097 447.582581,142.648071 445.413269,137.592438   C438.628632,121.780632 422.448334,113.755989 402.546356,115.985100  M648.052551,141.561386   C645.484558,136.955139 643.761536,131.518341 640.196777,127.891853   C627.336182,114.808441 611.603027,112.491966 594.591309,118.060684   C577.612366,123.618690 570.488220,136.733658 569.465942,153.487808   C568.445068,170.218246 574.559692,186.048828 590.155212,193.495285   C606.400085,201.251770 626.471924,198.994797 638.587463,187.019226   C651.372925,174.381546 651.842834,158.722763 648.052551,141.561386  M516.793457,61.641373   C515.895264,61.204208 515.013733,60.728012 514.096313,60.335667   C496.864288,52.965679 480.024323,61.932392 477.824158,80.396767   C476.668152,90.098724 477.389801,100.022285 477.224091,109.845116   C477.110901,116.555328 478.899963,118.323303 469.545319,118.087135   C468.047791,118.049324 466.074738,119.129997 465.145081,120.331085   C464.487640,121.180367 464.678467,123.733627 465.457214,124.404991   C466.665497,125.446701 468.679169,125.875549 470.382843,125.964874   C477.216614,126.323166 477.228149,126.237862 477.229889,133.061111   C477.234680,151.890686 477.231598,170.720261 477.235291,189.549835   C477.235962,192.904449 478.247711,195.717987 482.131470,195.732101   C485.801575,195.745438 486.663330,192.920364 486.858643,189.866501   C486.943573,188.538467 486.891357,187.201294 486.891449,185.868271   C486.892761,168.205124 486.887665,150.541992 486.894653,132.878845   C486.897369,126.049400 486.909424,126.046745 493.946198,126.032059   C498.778534,126.021973 503.611969,125.955170 508.442749,126.039421   C511.411163,126.091187 513.431946,125.016121 513.448547,121.871994   C513.466309,118.509735 511.074310,117.934036 508.283264,117.957870   C502.784790,118.004845 497.284393,117.896538 491.787170,117.991249   C488.470032,118.048401 486.852234,116.719429 486.878021,113.285667   C486.954376,103.121841 486.674652,92.948563 487.020355,82.795532   C487.332916,73.616692 493.240082,67.819023 502.438690,67.991035   C506.579559,68.068474 510.846741,69.611412 514.755798,71.220306   C517.781006,72.465454 519.966003,73.100533 521.925049,69.867676   C523.909851,66.592262 521.797180,64.992363 519.515015,63.388641   C518.834106,62.910107 518.137146,62.454220 516.793457,61.641373  M886.449951,158.775070   C886.268860,155.450912 886.157898,152.121216 885.894775,148.803558   C884.528931,131.580093 875.510559,120.571419 859.542786,116.569359   C837.913818,111.148422 817.264099,121.770668 814.115051,142.247330   C811.635010,158.374237 812.775696,175.065704 812.448242,191.509171   C812.385010,194.686523 814.802307,195.691025 817.584534,195.656479   C820.761658,195.617050 821.886963,193.643509 821.882263,190.721710   C821.869751,182.894409 821.663696,175.059296 821.942932,167.241882   C822.233093,159.116928 822.223938,150.859833 823.746094,142.929306   C825.939514,131.501328 835.409180,124.885078 847.878357,124.594856   C861.754272,124.271904 871.348755,130.190353 874.529419,141.698883   C875.751038,146.119461 876.075989,150.881836 876.169617,155.501450   C876.395752,166.654999 876.251038,177.816208 876.242310,188.974319   C876.239441,192.600220 876.721008,195.622009 881.519348,195.633545   C886.247009,195.644913 886.380981,192.461136 886.403931,189.200729   C886.472839,179.375473 886.441650,169.549500 886.449951,158.775070  M537.110657,66.780228   C537.110596,85.768723 537.110474,104.757210 537.110535,123.745705   C537.110596,145.565750 537.148438,167.385941 537.071350,189.205719   C537.059570,192.540833 537.443970,195.351547 541.468872,195.648804   C546.462585,196.017624 546.609009,192.274399 546.613708,188.913345   C546.671753,147.938370 546.659485,106.963295 546.641296,65.988251   C546.639832,62.785480 546.158386,60.011253 541.846741,59.956528   C537.493713,59.901279 536.979431,62.521843 537.110657,66.780228  M780.711914,195.585892   C783.935974,195.625900 786.183838,194.716812 786.175293,190.847092   C786.124939,168.062347 786.116089,145.277313 786.183533,122.492661   C786.194214,118.869545 784.326538,117.960510 781.168640,117.967720   C777.956787,117.975060 776.809082,119.449623 776.817993,122.578392   C776.882446,145.196762 776.787598,167.815964 776.985413,190.432816   C776.999817,192.080276 778.919556,193.711060 780.711914,195.585892  M779.146790,85.387894   C775.119507,86.581413 772.583862,89.468521 773.384766,93.434296   C773.924744,96.108063 776.097717,99.683388 778.356262,100.449478   C780.862122,101.299454 785.026123,100.253975 787.097839,98.455383   C788.793030,96.983650 789.441406,92.956123 788.833130,90.485252   C787.822449,86.379677 784.280701,84.636162 779.146790,85.387894  z"
   id="path2"
   style="fill:none" />
<path
   fill="#66A3AF"
   opacity="1.000000"
   stroke="none"
   d=" M221.950333,191.992966   C221.950333,199.100342 221.950333,206.207733 221.950333,213.829926   C236.519791,213.829926 250.432846,213.829926 264.723694,213.829926   C264.723694,227.732895 264.723694,241.117203 264.723694,255.239914   C262.949310,255.239914 261.190948,255.239914 259.432587,255.239899   C246.772675,255.239853 234.112671,255.268890 221.452850,255.234589   C174.216278,255.106628 133.959122,226.453857 118.747017,181.994217   C113.718407,167.297348 113.299271,151.925766 113.190926,136.624603   C112.978638,106.644119 113.184799,76.660835 113.059982,46.679371   C113.043617,42.746712 113.894402,41.016994 118.289490,41.114113   C130.587601,41.385872 142.895660,41.208729 155.779526,41.208729   C155.909653,43.288906 156.111359,45.032722 156.113586,46.776791   C156.136703,64.933746 156.021774,83.091545 156.158691,101.247490   C156.285446,118.056694 156.334351,134.877670 157.017273,151.669083   C158.296112,183.112320 182.640762,209.148300 213.848236,212.980865   C214.650528,213.079391 215.475494,212.993271 217.069305,212.993271   C217.069305,206.167389 217.069305,199.552597 217.547241,192.475388   C219.333557,192.006302 220.641937,191.999634 221.950333,191.992966  z"
   id="path4"
   style="fill:#ffffff" />
<path
   fill="#6AA5B1"
   opacity="1.000000"
   stroke="none"
   d=" M725.279114,251.422516   C709.497803,255.877258 695.441101,253.617218 683.822021,242.122421   C675.896667,234.281799 674.025085,224.270432 675.637024,213.504791   C676.146301,210.103516 677.580933,207.128540 681.667236,207.731689   C685.563110,208.306717 685.137756,211.626648 684.949829,214.463303   C684.351624,223.494263 685.942810,231.719360 693.205627,237.991898   C703.721252,247.073776 723.618652,245.968338 732.959290,235.759293   C741.770935,226.128403 740.902710,206.790878 730.832581,197.457138   C729.345520,196.078903 725.856750,195.962311 723.576965,196.488159   C711.734436,199.219879 700.326904,198.399963 689.716431,192.408905   C675.609802,184.443863 668.845276,167.659424 671.341003,150.173828   C675.810303,118.862442 706.368286,109.446045 727.976257,118.878471   C733.657593,121.358505 737.664734,120.869568 741.535767,116.267815   C742.695435,114.889137 744.142700,113.417862 745.760559,112.849121   C747.525513,112.228668 749.641479,112.606682 751.604492,112.549438   C751.559692,114.473747 752.074158,116.658516 751.329712,118.256943   C750.383545,120.288574 748.569763,122.012962 746.857666,123.570236   C743.581726,126.549881 743.691956,129.277267 745.806580,133.174484   C754.193909,148.632355 754.072205,164.375854 745.923279,179.929901   C744.566040,182.520477 742.491211,184.882629 740.301086,186.853775   C737.228149,189.619461 737.484680,191.631317 740.131042,194.683350   C750.989868,207.207047 751.646118,226.244797 742.073364,239.619751   C737.923584,245.417847 732.184875,248.885864 725.279114,251.422516  M738.990356,139.757156   C730.009705,120.088593 698.024353,118.683861 686.250000,136.311478   C680.384827,145.092285 679.415894,154.813797 681.211060,164.976913   C683.557068,178.258469 693.938721,187.853882 707.015137,188.847290   C724.185242,190.151688 735.752869,183.687637 740.292175,169.682297   C743.451477,159.934799 743.025085,150.091522 738.990356,139.757156  z"
   id="path6"
   style="fill:#ffffff" />
<path
   fill="#6AA5B1"
   opacity="1.000000"
   stroke="none"
   d=" M347.091736,140.065308   C347.979980,144.521347 348.925262,148.572571 349.491882,152.676086   C350.186646,157.707596 349.043274,158.895020 343.862854,158.902481   C324.697723,158.930099 305.532471,158.905624 286.367279,158.918701   C278.877350,158.923813 278.138489,159.898071 279.910278,167.079834   C283.846771,183.035995 296.359741,189.662430 312.438293,188.711914   C319.049561,188.321091 325.094208,186.239471 330.335632,181.876450   C331.835876,180.627609 334.222382,179.836975 336.158600,179.915741   C337.630859,179.975601 339.397430,181.503998 340.297119,182.865356   C340.683868,183.450562 339.484589,185.548599 338.535858,186.481155   C326.651184,198.163666 312.294128,200.306824 296.907806,196.122147   C282.141571,192.106094 272.825897,182.318787 270.095032,167.017166   C267.640167,153.261871 268.800812,140.094955 278.057098,128.736893   C294.216187,108.908646 336.803192,110.302277 347.091736,140.065308  M283.038452,137.639236   C282.380432,138.977585 281.626770,140.278107 281.080139,141.660507   C277.896545,149.711777 278.627808,150.754333 287.383179,150.757126   C302.694550,150.762009 318.005920,150.770493 333.317291,150.752869   C339.305695,150.745972 340.102264,149.658524 338.417206,143.992050   C334.792419,131.802734 325.862915,125.801361 313.945099,124.384575   C301.684998,122.927109 290.837860,126.143845 283.038452,137.639236  z"
   id="path8"
   style="fill:#ffffff" />
<path
   fill="#6AA5B1"
   opacity="1.000000"
   stroke="none"
   d=" M402.978271,115.962250   C422.448334,113.755989 438.628632,121.780632 445.413269,137.592438   C447.582581,142.648071 448.627350,148.477097 448.867554,154.009521   C449.379517,165.801056 449.010925,177.630112 449.041229,189.443695   C449.049591,192.692780 448.689636,195.596893 444.477661,195.695099   C440.300079,195.792526 439.744629,192.802063 439.533295,189.671371   C439.400665,187.706909 439.508606,185.726212 439.508606,183.066422   C422.781769,199.356720 404.765930,203.406509 385.116302,190.779419   C371.844940,182.251099 365.787964,163.439682 369.619110,146.330505   C373.360260,129.623444 384.913208,118.976349 402.978271,115.962250  M436.218689,173.516068   C439.949005,165.065033 441.336884,156.349884 438.995148,147.273209   C434.442200,129.625626 424.278778,125.057594 409.431549,124.147514   C394.943054,123.259415 383.090759,132.102524 379.610077,145.766144   C378.437775,150.368195 378.137604,155.322418 378.248535,160.096878   C378.575439,174.166855 387.946716,185.584183 401.206573,188.669662   C415.554382,192.008301 428.995056,186.414398 436.218689,173.516068  z"
   id="path10"
   style="fill:#ffffff" />
<path
   fill="#67A3AF"
   opacity="1.000000"
   stroke="none"
   d=" M217.925232,179.986969   C217.711746,178.175400 217.525787,176.360062 217.279343,174.552979   C216.665771,170.053925 214.432343,167.449356 209.848511,165.773331   C196.973969,161.065964 185.496521,154.142487 178.331284,141.816345   C176.776566,139.141830 175.721344,136.176987 174.442108,133.359161   C190.426483,126.098335 204.523621,131.736710 217.764908,150.663666   C218.317352,140.199707 222.296829,131.646591 229.180222,124.608307   C235.987625,117.647713 244.397644,113.871071 254.196594,112.712570   C256.706146,126.971489 253.880264,138.805511 243.383438,148.325500   C239.933548,151.454361 237.018524,155.232666 233.345612,158.043167   C226.273804,163.454483 223.469727,170.679962 222.496857,179.586090   C220.643173,179.990829 219.284210,179.988892 217.925232,179.986969  z"
   id="path12"
   style="fill:#ffffff" />
<path
   fill="#6AA5B1"
   opacity="1.000000"
   stroke="none"
   d=" M648.133911,141.958954   C651.842834,158.722763 651.372925,174.381546 638.587463,187.019226   C626.471924,198.994797 606.400085,201.251770 590.155212,193.495285   C574.559692,186.048828 568.445068,170.218246 569.465942,153.487808   C570.488220,136.733658 577.612366,123.618690 594.591309,118.060684   C611.603027,112.491966 627.336182,114.808441 640.196777,127.891853   C643.761536,131.518341 645.484558,136.955139 648.133911,141.958954  M582.357117,172.934296   C591.207275,193.466217 620.928162,192.415222 631.420410,181.411469   C641.748108,170.580429 642.994019,157.549088 638.823242,143.823151   C635.038940,131.369431 625.735168,125.177574 613.274719,124.181816   C598.865906,123.030350 584.151550,128.594940 580.052368,146.824692   C578.091980,155.542953 578.744446,163.967941 582.357117,172.934296  z"
   id="path14"
   style="fill:#ffffff" />
<path
   fill="#6EA8B3"
   opacity="1.000000"
   stroke="none"
   d=" M517.120483,61.814667   C518.137146,62.454220 518.834106,62.910107 519.515015,63.388641   C521.797180,64.992363 523.909851,66.592262 521.925049,69.867676   C519.966003,73.100533 517.781006,72.465454 514.755798,71.220306   C510.846741,69.611412 506.579559,68.068474 502.438690,67.991035   C493.240082,67.819023 487.332916,73.616692 487.020355,82.795532   C486.674652,92.948563 486.954376,103.121841 486.878021,113.285667   C486.852234,116.719429 488.470032,118.048401 491.787170,117.991249   C497.284393,117.896538 502.784790,118.004845 508.283264,117.957870   C511.074310,117.934036 513.466309,118.509735 513.448547,121.871994   C513.431946,125.016121 511.411163,126.091187 508.442749,126.039421   C503.611969,125.955170 498.778534,126.021973 493.946198,126.032059   C486.909424,126.046745 486.897369,126.049400 486.894653,132.878845   C486.887665,150.541992 486.892761,168.205124 486.891449,185.868271   C486.891357,187.201294 486.943573,188.538467 486.858643,189.866501   C486.663330,192.920364 485.801575,195.745438 482.131470,195.732101   C478.247711,195.717987 477.235962,192.904449 477.235291,189.549835   C477.231598,170.720261 477.234680,151.890686 477.229889,133.061111   C477.228149,126.237862 477.216614,126.323166 470.382843,125.964874   C468.679169,125.875549 466.665497,125.446701 465.457214,124.404991   C464.678467,123.733627 464.487640,121.180367 465.145081,120.331085   C466.074738,119.129997 468.047791,118.049324 469.545319,118.087135   C478.899963,118.323303 477.110901,116.555328 477.224091,109.845116   C477.389801,100.022285 476.668152,90.098724 477.824158,80.396767   C480.024323,61.932392 496.864288,52.965679 514.096313,60.335667   C515.013733,60.728012 515.895264,61.204208 517.120483,61.814667  z"
   id="path16"
   style="fill:#ffffff" />
<path
   fill="#6CA6B2"
   opacity="1.000000"
   stroke="none"
   d=" M886.449707,159.249451   C886.441650,169.549500 886.472839,179.375473 886.403931,189.200729   C886.380981,192.461136 886.247009,195.644913 881.519348,195.633545   C876.721008,195.622009 876.239441,192.600220 876.242310,188.974319   C876.251038,177.816208 876.395752,166.654999 876.169617,155.501450   C876.075989,150.881836 875.751038,146.119461 874.529419,141.698883   C871.348755,130.190353 861.754272,124.271904 847.878357,124.594856   C835.409180,124.885078 825.939514,131.501328 823.746094,142.929306   C822.223938,150.859833 822.233093,159.116928 821.942932,167.241882   C821.663696,175.059296 821.869751,182.894409 821.882263,190.721710   C821.886963,193.643509 820.761658,195.617050 817.584534,195.656479   C814.802307,195.691025 812.385010,194.686523 812.448242,191.509171   C812.775696,175.065704 811.635010,158.374237 814.115051,142.247330   C817.264099,121.770668 837.913818,111.148422 859.542786,116.569359   C875.510559,120.571419 884.528931,131.580093 885.894775,148.803558   C886.157898,152.121216 886.268860,155.450912 886.449707,159.249451  z"
   id="path18"
   style="fill:#ffffff" />
<path
   fill="#69A4B0"
   opacity="1.000000"
   stroke="none"
   d=" M537.110901,66.317886   C536.979431,62.521843 537.493713,59.901279 541.846741,59.956528   C546.158386,60.011253 546.639832,62.785480 546.641296,65.988251   C546.659485,106.963295 546.671753,147.938370 546.613708,188.913345   C546.609009,192.274399 546.462585,196.017624 541.468872,195.648804   C537.443970,195.351547 537.059570,192.540833 537.071350,189.205719   C537.148438,167.385941 537.110596,145.565750 537.110535,123.745705   C537.110474,104.757210 537.110596,85.768723 537.110901,66.317886  z"
   id="path20"
   style="fill:#ffffff" />
<path
   fill="#67A3AF"
   opacity="1.000000"
   stroke="none"
   d=" M780.332642,195.467743   C778.919556,193.711060 776.999817,192.080276 776.985413,190.432816   C776.787598,167.815964 776.882446,145.196762 776.817993,122.578392   C776.809082,119.449623 777.956787,117.975060 781.168640,117.967720   C784.326538,117.960510 786.194214,118.869545 786.183533,122.492661   C786.116089,145.277313 786.124939,168.062347 786.175293,190.847092   C786.183838,194.716812 783.935974,195.625900 780.332642,195.467743  z"
   id="path22"
   style="fill:#ffffff" />
<path
   fill="#6CA6B2"
   opacity="1.000000"
   stroke="none"
   d=" M779.527954,85.308228   C784.280701,84.636162 787.822449,86.379677 788.833130,90.485252   C789.441406,92.956123 788.793030,96.983650 787.097839,98.455383   C785.026123,100.253975 780.862122,101.299454 778.356262,100.449478   C776.097717,99.683388 773.924744,96.108063 773.384766,93.434296   C772.583862,89.468521 775.119507,86.581413 779.527954,85.308228  z"
   id="path24"
   style="fill:#ffffff" />
<path
   fill="#6EA8B3"
   opacity="1.000000"
   stroke="none"
   d=" M217.720093,180.332947   C219.284210,179.988892 220.643173,179.990829 222.407608,179.990387   C222.663818,183.761749 222.514557,187.535461 222.157822,191.651077   C220.641937,191.999634 219.333557,192.006302 217.633881,192.015320   C217.333389,188.238113 217.424164,184.458527 217.720093,180.332947  z"
   id="path26"
   style="fill:#ffffff" />
<path
   fill="#FDFEFE"
   opacity="1.000000"
   stroke="none"
   d=" M739.132751,140.115463   C743.025085,150.091522 743.451477,159.934799 740.292175,169.682297   C735.752869,183.687637 724.185242,190.151688 707.015137,188.847290   C693.938721,187.853882 683.557068,178.258469 681.211060,164.976913   C679.415894,154.813797 680.384827,145.092285 686.250000,136.311478   C698.024353,118.683861 730.009705,120.088593 739.132751,140.115463  z"
   id="path28"
   style="fill:none" />
<path
   fill="#FAFCFC"
   opacity="1.000000"
   stroke="none"
   d=" M283.234680,137.330856   C290.837860,126.143845 301.684998,122.927109 313.945099,124.384575   C325.862915,125.801361 334.792419,131.802734 338.417206,143.992050   C340.102264,149.658524 339.305695,150.745972 333.317291,150.752869   C318.005920,150.770493 302.694550,150.762009 287.383179,150.757126   C278.627808,150.754333 277.896545,149.711777 281.080139,141.660507   C281.626770,140.278107 282.380432,138.977585 283.234680,137.330856  z"
   id="path30"
   style="fill:none" />
<path
   fill="#FDFEFE"
   opacity="1.000000"
   stroke="none"
   d=" M436.076813,173.865997   C428.995056,186.414398 415.554382,192.008301 401.206573,188.669662   C387.946716,185.584183 378.575439,174.166855 378.248535,160.096878   C378.137604,155.322418 378.437775,150.368195 379.610077,145.766144   C383.090759,132.102524 394.943054,123.259415 409.431549,124.147514   C424.278778,125.057594 434.442200,129.625626 438.995148,147.273209   C441.336884,156.349884 439.949005,165.065033 436.076813,173.865997  z"
   id="path32"
   style="fill:none" />
<path
   fill="#FDFEFE"
   opacity="1.000000"
   stroke="none"
   d=" M582.222046,172.576874   C578.744446,163.967941 578.091980,155.542953 580.052368,146.824692   C584.151550,128.594940 598.865906,123.030350 613.274719,124.181816   C625.735168,125.177574 635.038940,131.369431 638.823242,143.823151   C642.994019,157.549088 641.748108,170.580429 631.420410,181.411469   C620.928162,192.415222 591.207275,193.466217 582.222046,172.576874  z"
   id="path34"
   style="fill:none" />
</svg>
