<?xml version="1.0" encoding="UTF-8" standalone="no"?>
<svg
   width="35px"
   height="35px"
   viewBox="0 0 35 35"
   version="1.1"
   id="svg39"
   xmlns="http://www.w3.org/2000/svg"
   xmlns:svg="http://www.w3.org/2000/svg"
   xmlns:rdf="http://www.w3.org/1999/02/22-rdf-syntax-ns#"
   xmlns:cc="http://creativecommons.org/ns#"
   xmlns:dc="http://purl.org/dc/elements/1.1/">
  <!-- Generator: Sketch 46.1 (44463) - http://www.bohemiancoding.com/sketch -->
  <title
     id="title2">Artboard</title>
  <desc
     id="desc4">Created with Sketch.</desc>
  <defs
     id="defs9">
    <polyline
       id="path-1"
       points="4.58645833 30.2888889 0.266666667 26.1111111 0.266666667 0.261111111 26.4013605 0.261111111 26.4013605 26.1111111 9.6 26.1111111 9.6 9.4 21.3333333 9.4" />
    <path
       d="M5.06666667,4.7 L9.86666667,9.66111111"
       id="path-2" />
    <path
       d="M26.4,25.85 L21.6,21.4111111"
       id="path-3" />
  </defs>
  <path
     id="path0"
     d="m 9.0557869,4.7476111 c -0.1006987,0.01951 -0.2840353,0.122083 -0.2960472,0.165699 -0.015848,0.05725 -0.014656,9.8793839 0.00134,10.9765939 0.012947,0.889335 0.020788,1.092861 0.062192,1.623107 0.00843,0.107937 0.02147,0.383109 0.028967,0.611517 0.010308,0.315639 0.024536,0.496676 0.059126,0.754898 0.025046,0.186831 0.052732,0.429632 0.061427,0.539533 0.01252,0.158967 0.024536,0.222269 0.058954,0.309507 0.034162,0.08673 0.045235,0.144573 0.053076,0.276365 0.010225,0.171499 0.029649,0.269639 0.082552,0.415831 0.016785,0.04634 0.035017,0.131281 0.04055,0.188788 0.00599,0.06228 0.027686,0.145344 0.053758,0.205656 0.024874,0.05769 0.050864,0.15497 0.060318,0.22645 0.016957,0.127189 0.038593,0.188189 0.078548,0.221414 0.012947,0.01071 0.029815,0.07199 0.040467,0.146958 0.013884,0.09823 0.027176,0.139211 0.056314,0.173794 0.023516,0.02792 0.046172,0.08392 0.059209,0.146365 0.011672,0.05565 0.037401,0.125659 0.057252,0.155735 0.032798,0.04947 0.047454,0.09124 0.074715,0.212559 0.00504,0.02231 0.028795,0.06222 0.052821,0.08851 0.031778,0.03474 0.046344,0.06961 0.053669,0.127622 0.00612,0.04915 0.027265,0.107083 0.055122,0.151044 0.024791,0.03914 0.055798,0.102404 0.068751,0.140659 0.012947,0.03818 0.038848,0.09005 0.05759,0.115261 0.018659,0.02524 0.044132,0.07642 0.056487,0.113739 0.01244,0.03742 0.04012,0.09388 0.06168,0.125487 0.02147,0.03168 0.04958,0.09363 0.06236,0.137758 0.01286,0.04405 0.03434,0.08928 0.04788,0.10053 0.01355,0.01116 0.04166,0.05648 0.06262,0.100613 0.02087,0.04424 0.04967,0.08656 0.06398,0.09422 0.01431,0.0076 0.03476,0.04654 0.04549,0.0863 0.01091,0.04061 0.04089,0.09542 0.0685,0.125149 0.027,0.02907 0.05393,0.07539 0.05972,0.102997 0.0058,0.0276 0.0293,0.07182 0.05222,0.09815 0.023,0.02639 0.05367,0.07173 0.06824,0.100785 0.01457,0.02913 0.04183,0.06985 0.06066,0.09064 0.01882,0.02078 0.042,0.06222 0.05154,0.0921 0.0096,0.02996 0.03493,0.07071 0.05632,0.09064 0.02147,0.01982 0.05529,0.07012 0.07531,0.111692 0.04558,0.09474 0.08656,0.155901 0.168001,0.250808 0.03527,0.04112 0.06415,0.08111 0.06415,0.08886 0,0.0078 0.01951,0.0364 0.04328,0.06362 0.02377,0.02735 0.05751,0.07769 0.07489,0.111947 0.0173,0.03423 0.04174,0.0662 0.05419,0.07096 0.01244,0.0045 0.03646,0.03595 0.0535,0.06934 0.01704,0.03334 0.04447,0.06781 0.061,0.07668 0.01661,0.0089 0.04396,0.04144 0.06083,0.07225 0.05946,0.108709 0.267679,0.35807 0.52607,0.629839 0.02368,0.02499 0.102744,0.113221 0.175669,0.196284 0.07293,0.08306 0.143807,0.161186 0.157523,0.173623 0.01372,0.0125 0.07224,0.07446 0.130005,0.137759 0.102744,0.112539 0.386353,0.38397 0.526581,0.503917 0.03885,0.03321 0.09968,0.08758 0.135118,0.120808 0.03544,0.03321 0.120463,0.111348 0.188959,0.173623 0.06841,0.06228 0.145169,0.132218 0.170558,0.155391 0.0253,0.02314 0.07412,0.05629 0.108451,0.07369 0.03433,0.01747 0.08622,0.05106 0.115267,0.07455 0.02905,0.02359 0.08528,0.06858 0.124893,0.09993 0.03961,0.03136 0.09738,0.07812 0.128302,0.10394 0.03101,0.02588 0.08869,0.0612 0.128216,0.07855 0.03953,0.01728 0.07608,0.04233 0.0811,0.05552 0.0051,0.0132 0.03391,0.03672 0.06398,0.05214 0.03016,0.01543 0.07105,0.04558 0.09099,0.06688 0.01993,0.02129 0.06066,0.0466 0.09056,0.05603 0.0299,0.0096 0.0748,0.03621 0.09968,0.05922 0.02496,0.02301 0.0662,0.05234 0.09175,0.06509 0.02547,0.01288 0.05581,0.03474 0.0673,0.04864 0.0115,0.0139 0.0552,0.04035 0.09703,0.05897 0.04183,0.01849 0.08587,0.04552 0.0978,0.05999 0.01193,0.01441 0.0547,0.04296 0.09508,0.06336 0.04038,0.02046 0.0771,0.04685 0.08161,0.05871 0.0045,0.01186 0.04669,0.0357 0.09363,0.05317 0.04703,0.01747 0.100784,0.04794 0.119527,0.0679 0.01866,0.01995 0.06287,0.04456 0.09814,0.05476 0.03518,0.01014 0.08843,0.03997 0.118163,0.0662 0.03322,0.02932 0.07812,0.05151 0.11663,0.05769 0.03655,0.0057 0.08315,0.02811 0.1122,0.05368 0.02735,0.0239 0.07863,0.05138 0.113819,0.06094 0.03527,0.0094 0.08613,0.0364 0.113052,0.05973 0.02684,0.02333 0.08375,0.05393 0.126342,0.0679 0.0426,0.01396 0.08928,0.0385 0.10368,0.05444 0.0144,0.01594 0.05784,0.03946 0.09652,0.05234 0.03876,0.01288 0.09584,0.04061 0.127023,0.06183 0.03237,0.02199 0.09678,0.04526 0.150537,0.05444 0.05367,0.0091 0.12319,0.03417 0.161953,0.05839 0.03877,0.02429 0.11007,0.05004 0.166042,0.05999 0.05878,0.01046 0.124042,0.03462 0.162635,0.06005 0.03927,0.02588 0.103254,0.04934 0.16323,0.05973 0.05435,0.0094 0.137418,0.03723 0.184615,0.06171 0.05146,0.02658 0.131368,0.05132 0.199182,0.06145 0.06722,0.01014 0.139292,0.03226 0.177544,0.05463 0.04481,0.02626 0.110496,0.04405 0.217243,0.05897 0.08417,0.01186 0.180951,0.03372 0.215029,0.04883 0.07957,0.03519 0.105554,0.04131 0.292043,0.06901 0.08502,0.01269 0.180781,0.03646 0.212899,0.05285 0.06747,0.03442 0.191941,0.05622 0.39402,0.06917 0.08221,0.0051 0.181036,0.02244 0.234026,0.04061 0.140996,0.04858 0.19126,0.05591 0.491738,0.07207 0.195434,0.01046 0.313341,0.02429 0.392572,0.04603 0.292043,0.08008 0.544642,0.08775 3.442499,0.104788 1.274666,0.0075 2.422903,0.01447 2.551631,0.01562 0.331488,0.0025 0.43142,-0.0094 0.46865,-0.05674 0.0449,-0.05705 0.04685,-4.754225 0.002,-4.794864 -0.02539,-0.02301 -0.221333,-0.02493 -2.511505,-0.02493 -2.369062,0 -2.485095,-0.0013 -2.508438,-0.02709 -0.06288,-0.06935 -0.02999,-3.106327 0.03535,-3.271943 0.01772,-0.04488 0.03825,-0.392315 0.05299,-0.894193 0.0072,-0.24655 0.04013,-0.472993 0.09721,-0.668431 0.0084,-0.02894 0.01593,-0.100357 0.01653,-0.15854 0.0017,-0.165195 0.01968,-0.256602 0.06296,-0.319732 0.02837,-0.0415 0.04421,-0.09192 0.05597,-0.178569 0.01304,-0.0955 0.02436,-0.128725 0.05427,-0.15854 0.04107,-0.04099 0.09823,-0.11595 0.17848,-0.23403 0.02829,-0.0415 0.138781,-0.161696 0.245614,-0.267083 0.46473,-0.458338 0.839241,-0.818792 0.979555,-0.943004 0.202419,-0.179162 0.340689,-0.309934 0.45144,-0.427249 0.0506,-0.05348 0.128898,-0.131619 0.174136,-0.173622 0.04515,-0.04201 0.142614,-0.135802 0.216562,-0.208467 0.07386,-0.07267 0.139377,-0.132136 0.14551,-0.132136 0.0061,0 0.0196,-0.01587 0.02999,-0.03519 0.01031,-0.01931 0.03876,-0.04692 0.06313,-0.06133 0.02436,-0.01441 0.05384,-0.04908 0.06551,-0.07693 0.01167,-0.02792 0.04873,-0.08689 0.0823,-0.13111 0.03365,-0.04424 0.07395,-0.09737 0.08971,-0.118162 0.01567,-0.02078 0.03978,-0.05979 0.05367,-0.08673 0.0138,-0.02684 0.04158,-0.05973 0.06176,-0.07293 0.02079,-0.01364 0.04685,-0.05495 0.06049,-0.09584 0.01312,-0.03946 0.04396,-0.09107 0.0685,-0.114669 0.02462,-0.02352 0.0489,-0.065 0.05401,-0.0921 0.005,-0.02709 0.03229,-0.0851 0.06057,-0.128898 0.0282,-0.04386 0.05129,-0.09542 0.05129,-0.114669 0,-0.04692 0.03979,-0.139715 0.05989,-0.139715 0.02487,0 0.05844,-0.08911 0.06841,-0.181464 0.0088,-0.08179 0.01993,-0.110583 0.07071,-0.182656 0.01397,-0.01976 0.03254,-0.08877 0.0414,-0.153261 0.0091,-0.06645 0.03237,-0.149431 0.05368,-0.191517 0.07258,-0.143292 0.08502,-0.599163 0.0391,-1.435084 -0.02454,-0.446245 -0.03008,-0.452715 -0.382944,-0.452888 -0.249021,-8.2e-5 -0.274409,0.0051 -0.372977,0.07761 -0.02079,0.01524 -0.07846,0.03551 -0.128302,0.04507 -0.05461,0.01045 -0.10564,0.03117 -0.128386,0.05208 -0.04515,0.0415 -0.107429,0.06679 -0.164424,0.06679 -0.023,0 -0.07182,0.01983 -0.108537,0.04424 -0.03672,0.02429 -0.11271,0.05572 -0.169024,0.06986 -0.05844,0.01466 -0.124978,0.04373 -0.155222,0.06781 -0.02922,0.02314 -0.08008,0.04666 -0.113137,0.05221 -0.03451,0.0057 -0.08536,0.03124 -0.119526,0.0598 -0.03936,0.03296 -0.08289,0.05323 -0.129154,0.06018 -0.04711,0.0071 -0.08042,0.02282 -0.102658,0.04858 -0.01815,0.02097 -0.05333,0.04858 -0.07821,0.06145 -0.02496,0.01275 -0.06688,0.04207 -0.09329,0.065 -0.02633,0.02301 -0.07054,0.04654 -0.09814,0.05221 -0.0276,0.0057 -0.07395,0.03391 -0.102998,0.0626 -0.02905,0.02881 -0.113989,0.104023 -0.188789,0.167235 -0.201142,0.170219 -0.29477,0.262991 -0.476658,0.472229 -0.09031,0.103768 -0.191515,0.21699 -0.224911,0.25149 -0.03348,0.03449 -0.06091,0.07335 -0.06091,0.0863 0,0.01294 -0.01942,0.04583 -0.04319,0.0731 -0.02377,0.02735 -0.05367,0.07003 -0.06654,0.0949 -0.01286,0.02499 -0.04439,0.06526 -0.07003,0.08962 -0.02573,0.02448 -0.04669,0.05234 -0.04669,0.06209 0,0.0097 -0.023,0.04207 -0.0512,0.07199 -0.03237,0.03436 -0.05768,0.08153 -0.06901,0.128808 -0.01005,0.04195 -0.03416,0.08997 -0.05503,0.109474 -0.02036,0.01919 -0.04779,0.07259 -0.06091,0.118589 -0.01312,0.04609 -0.0397,0.100702 -0.05895,0.12149 -0.02164,0.02314 -0.04464,0.07965 -0.05981,0.146447 -0.01602,0.07071 -0.04004,0.128133 -0.06884,0.164424 -0.02436,0.0306 -0.04447,0.06662 -0.04473,0.08 -0.0021,0.109901 -0.03408,0.252854 -0.07046,0.314874 -0.03629,0.06203 -0.04268,0.09269 -0.05239,0.252428 -0.0078,0.129496 -0.02249,0.218692 -0.05095,0.310106 -0.02939,0.09431 -0.04328,0.181629 -0.05248,0.329275 -0.01729,0.277301 -0.04924,0.323136 -0.158545,0.227126 -0.07054,-0.06183 -0.09789,-0.11706 -0.09789,-0.197139 0,-0.08843 -0.02113,-0.155398 -0.06594,-0.20864 -0.02062,-0.02454 -0.04814,-0.08111 -0.06117,-0.125831 -0.01295,-0.04462 -0.03442,-0.09014 -0.04754,-0.101129 -0.0132,-0.0109 -0.04123,-0.05425 -0.06227,-0.09635 -0.02096,-0.04201 -0.05069,-0.09014 -0.06602,-0.106834 -0.01525,-0.0167 -0.03799,-0.05476 -0.05044,-0.0846 -0.01244,-0.02971 -0.04677,-0.08059 -0.07633,-0.112967 -0.02948,-0.03238 -0.07352,-0.08263 -0.0978,-0.111774 -0.05946,-0.07105 -0.341711,-0.353633 -0.412592,-0.412931 -0.03127,-0.02614 -0.08221,-0.07233 -0.113222,-0.10257 -0.03101,-0.03022 -0.0777,-0.06568 -0.103681,-0.07872 -0.02598,-0.01307 -0.05095,-0.0334 -0.05546,-0.04526 -0.0046,-0.01186 -0.04107,-0.03359 -0.0811,-0.04819 -0.04004,-0.01473 -0.09661,-0.04883 -0.12566,-0.07565 -0.02913,-0.0269 -0.07548,-0.05361 -0.103084,-0.05941 -0.0276,-0.0057 -0.07173,-0.0292 -0.09814,-0.05202 -0.02633,-0.02282 -0.08008,-0.05234 -0.119271,-0.06551 -0.03928,-0.01313 -0.09422,-0.04131 -0.122168,-0.0626 -0.02786,-0.02129 -0.0863,-0.04552 -0.129835,-0.05374 -0.08749,-0.01651 -0.100188,-0.02206 -0.146192,-0.0633 -0.01806,-0.01619 -0.07327,-0.03493 -0.128302,-0.0436 -0.05316,-0.0084 -0.13222,-0.03238 -0.175669,-0.05336 -0.137332,-0.06637 -0.1519,-0.06747 -0.928098,-0.06773 -0.793067,-3.38e-4 -0.883286,0.0057 -1.000853,0.06841 -0.04626,0.02454 -0.104533,0.03844 -0.191856,0.04552 -0.06901,0.0057 -0.148237,0.01728 -0.176095,0.02601 -0.122764,0.03825 -0.137672,0.273559 -0.02573,0.406632 0.01976,0.02352 0.04362,0.07863 0.05308,0.122421 0.0094,0.04386 0.03416,0.10445 0.05512,0.134775 0.02096,0.03022 0.04745,0.09057 0.05895,0.134099 0.01269,0.04807 0.03826,0.09601 0.06526,0.122504 0.02982,0.02913 0.04771,0.06492 0.05427,0.108798 0.007,0.04666 0.02445,0.07957 0.06091,0.114924 0.02811,0.02728 0.05554,0.06739 0.061,0.08928 0.0055,0.0218 0.02539,0.06005 0.0443,0.08494 0.01891,0.02499 0.04899,0.07395 0.06679,0.108957 0.01789,0.035 0.04592,0.07097 0.06245,0.07974 0.01644,0.0089 0.04021,0.03589 0.05273,0.05999 0.02573,0.04991 0.153433,0.221331 0.211025,0.28344 0.02104,0.02276 0.03834,0.04628 0.03834,0.05221 0,0.0094 0.04839,0.06466 0.135884,0.155136 0.124638,0.12898 0.382348,0.371106 0.430312,0.404331 0.187511,0.129917 0.297496,0.2146 0.360368,0.277384 0.02598,0.02588 0.07105,0.05897 0.100103,0.07344 0.02905,0.01447 0.06654,0.03882 0.08323,0.05399 0.01669,0.01523 0.0552,0.03806 0.08545,0.05074 0.03024,0.01262 0.06781,0.03927 0.08349,0.05922 0.01568,0.01995 0.05538,0.05113 0.08826,0.06917 0.117567,0.065 0.226359,0.134099 0.260181,0.165361 0.019,0.01747 0.06313,0.04615 0.09814,0.06375 0.03502,0.01766 0.07727,0.04379 0.09388,0.0582 0.01661,0.01441 0.06083,0.03799 0.09814,0.05234 0.0374,0.01441 0.08494,0.04201 0.105725,0.06132 0.02079,0.01932 0.07335,0.04564 0.116886,0.05839 0.04353,0.01275 0.101295,0.03997 0.128386,0.0603 0.027,0.02046 0.0863,0.04807 0.131709,0.06145 0.04541,0.01339 0.109559,0.04207 0.142529,0.06398 0.03305,0.0218 0.09337,0.04845 0.13418,0.05929 0.04089,0.01071 0.09959,0.03716 0.130687,0.05858 0.03212,0.02231 0.09354,0.04513 0.142614,0.05317 0.04737,0.0078 0.122253,0.03468 0.166383,0.05992 0.04933,0.0283 0.116033,0.05087 0.173368,0.05871 0.07446,0.01014 0.103169,0.02231 0.142444,0.06043 0.02709,0.02626 0.05708,0.04781 0.06671,0.04781 0.148918,0 0.340689,0.142017 0.389335,0.288464 0.01337,0.04035 0.03135,0.07778 0.03987,0.08306 0.03254,0.02008 0.06151,0.123957 0.07361,0.264017 0.0076,0.08698 0.02811,0.189553 0.05103,0.255149 0.07224,0.206765 0.09107,0.641765 0.04617,1.064494 -0.01235,0.116288 -0.02258,0.245358 -0.02266,0.286934 -1.71e-4,0.0415 -0.0115,0.106063 -0.02522,0.143381 -0.02897,0.07863 -0.04626,0.869146 -0.04873,2.224061 -0.0016,0.867183 0.0025,0.836004 -0.115267,0.88806 -0.06628,0.02939 -0.06662,0.02932 -0.161186,-0.0025 -0.06662,-0.0225 -0.157863,-0.03576 -0.306271,-0.04456 -0.178991,-0.01058 -0.231725,-0.01976 -0.344522,-0.05999 -0.09686,-0.03455 -0.176435,-0.05093 -0.291873,-0.06024 -0.124893,-0.0099 -0.165786,-0.019 -0.191515,-0.04246 -0.05819,-0.05297 -0.09934,-0.06535 -0.259925,-0.07821 -0.145341,-0.01166 -0.161868,-0.01625 -0.209832,-0.05826 -0.04012,-0.03525 -0.0719,-0.04787 -0.139632,-0.0554 -0.13878,-0.0153 -0.171921,-0.0241 -0.201227,-0.05342 -0.03987,-0.03984 -0.07395,-0.05514 -0.150622,-0.06739 -0.03961,-0.0064 -0.08434,-0.02626 -0.107259,-0.04781 -0.02164,-0.02027 -0.08085,-0.0494 -0.131539,-0.06484 -0.05069,-0.0153 -0.109814,-0.04175 -0.131368,-0.05871 -0.02155,-0.01696 -0.07446,-0.04227 -0.117567,-0.05629 -0.0432,-0.01396 -0.09576,-0.0415 -0.116971,-0.0612 -0.02113,-0.01976 -0.07241,-0.0459 -0.113904,-0.05827 -0.05009,-0.01479 -0.08664,-0.03748 -0.108621,-0.0673 -0.02164,-0.0292 -0.05222,-0.04845 -0.08749,-0.05514 -0.03041,-0.0057 -0.08383,-0.03576 -0.121741,-0.06867 -0.03715,-0.03213 -0.0771,-0.05846 -0.08877,-0.05846 -0.01167,0 -0.04353,-0.01919 -0.0708,-0.04252 -0.02726,-0.02346 -0.07335,-0.05163 -0.102403,-0.06273 -0.02913,-0.01097 -0.07463,-0.04284 -0.10121,-0.07063 -0.02649,-0.02786 -0.05563,-0.05062 -0.06458,-0.05062 -0.0089,0 -0.03817,-0.02046 -0.06492,-0.04539 -0.04609,-0.04303 -0.131708,-0.103424 -0.248934,-0.175669 -0.02888,-0.01772 -0.09755,-0.07565 -0.152582,-0.128643 -0.05503,-0.0531 -0.168001,-0.157265 -0.251065,-0.231728 -0.08306,-0.07437 -0.157268,-0.145593 -0.164935,-0.158113 -0.0077,-0.01262 -0.03331,-0.03997 -0.057,-0.06069 -0.02377,-0.02078 -0.07863,-0.07437 -0.121998,-0.119016 -0.04336,-0.04475 -0.177372,-0.18214 -0.29775,-0.305415 -0.321436,-0.329102 -0.432442,-0.456298 -0.480066,-0.55044 -0.01712,-0.03385 -0.04226,-0.07071 -0.05597,-0.08204 -0.01363,-0.01135 -0.03723,-0.04488 -0.05231,-0.07446 -0.01517,-0.02964 -0.04277,-0.06747 -0.06151,-0.08408 -0.01866,-0.01664 -0.04958,-0.06526 -0.06875,-0.10811 -0.01909,-0.04277 -0.042,-0.0823 -0.05086,-0.08784 -0.0089,-0.0057 -0.03033,-0.03831 -0.04771,-0.07309 -0.01747,-0.03468 -0.04711,-0.08009 -0.06594,-0.100868 -0.01882,-0.02078 -0.04583,-0.07361 -0.06006,-0.117487 -0.01423,-0.04386 -0.04123,-0.09823 -0.05989,-0.120801 -0.01874,-0.02257 -0.04507,-0.07386 -0.05853,-0.113987 -0.01346,-0.04003 -0.04515,-0.09635 -0.07028,-0.125066 -0.02522,-0.02869 -0.04583,-0.0691 -0.04583,-0.08988 0,-0.04889 -0.03382,-0.129242 -0.06551,-0.15548 -0.01363,-0.01135 -0.03902,-0.06909 -0.0564,-0.128387 -0.01738,-0.05922 -0.04847,-0.132563 -0.06918,-0.162977 -0.02181,-0.03194 -0.04234,-0.09013 -0.0489,-0.138097 -0.0061,-0.04558 -0.02258,-0.09883 -0.03646,-0.118334 -0.01388,-0.01957 -0.03553,-0.04953 -0.04796,-0.06662 -0.01252,-0.01715 -0.02649,-0.07488 -0.0311,-0.128298 -0.01423,-0.163404 -0.02079,-0.188533 -0.06909,-0.261377 -0.03979,-0.06005 -0.04822,-0.09022 -0.05784,-0.206848 -0.0086,-0.104278 -0.01909,-0.146957 -0.04413,-0.180865 -0.04149,-0.05616 -0.05964,-0.151649 -0.0765,-0.403821 -0.01176,-0.175325 -0.01866,-0.210596 -0.05521,-0.279259 -0.04098,-0.0771 -0.04209,-0.08596 -0.05376,-0.431252 -0.01235,-0.361563 -0.04669,-0.771344 -0.07207,-0.859686 -0.04898,-0.169963 -0.05069,-0.432533 -0.03799,-5.776461 0.0167,-7.0695339 0.01747,-6.5128779 -0.0089,-6.5848679 -0.01585,-0.04328 -0.04285,-0.07428 -0.09542,-0.109474 l -0.07344,-0.04909 -2.259332,0.0019 c -1.242548,0.0013 -2.2864237,0.0071 -2.3196496,0.01364"
     stroke="none"
     fill="#66a4ac"
     fill-rule="evenodd"
     style="stroke-width:0.0851934;fill:#ffffff" />
  <metadata
     id="metadata225">
    <rdf:RDF>
      <cc:Work
         rdf:about="">
        <dc:title>Artboard</dc:title>
      </cc:Work>
    </rdf:RDF>
  </metadata>
</svg>
